# xmcd CD database file
#
# Track frame offsets:
#	150
#	5687
#	21898
#	27303
#	49503
#	65324
#	80867
#	86393
#	123680
#	138389
#	156391
#	170197
#	188998
#	207425
#	219070
#	240109
#	263330
#	275339
#	284986
#	308757
#
# Disc length: 4208 seconds
#
# Revision: 0
# Processed by: cddbd v1.5.1PL2 Copyright (c) Steve Scherf et al.
# Submitted via: CDex 1.60beta1
#
DISCID=1e106e14
DTITLE=刃頭 - 日本代表
DYEAR=2004
DGENRE=General Hip Hop
TTITLE0=日本代表者
TTITLE1=刃頭 Feat. 漢 - イキザマ
TTITLE2=血潮  (イチローSkit)
TTITLE3=刃頭 Feat. TOKONA-X - P×××Y
TTITLE4=ハウリングMETAL -愛○地球刃頭-
TTITLE5=刃頭 Feat. PHOBIA OF THUG - JAPANESTA
TTITLE6=ユンズクラップ
TTITLE7=刃頭 Feat. KENZAN - BALL16-刃頭と言う男-
TTITLE8=刃頭 Feat. RINO LATINA II+G.K. MARYAN - DJ YAS - GOTANDA DREAM
TTITLE9=特効ストレート
TTITLE10=散無櫻 -チラヌサクラ-
TTITLE11=刃頭 Feat. TWIGY - 1・2
TTITLE12=フロアカリブ
TTITLE13=刃頭 Feat. MC WIRE - AM197KHz-「DeLaDeLaWIRE?」
TTITLE14=刃頭 Feat. Lyrical Maneuver - サイン・ボード
TTITLE15=刃頭 Feat. CQ and DEV LARGE - 湾岸ドライブ
TTITLE16=ユスキュダル
TTITLE17=DJ世音 - Toh-Joh prod
TTITLE18=刃頭 Feat. ORITO - nene
TTITLE19=Play Again
EXTD=YEAR: 2004
EXTT0=
EXTT1=
EXTT2=
EXTT3=
EXTT4=
EXTT5=
EXTT6=
EXTT7=
EXTT8=
EXTT9=
EXTT10=
EXTT11=
EXTT12=
EXTT13=
EXTT14=
EXTT15=
EXTT16=
EXTT17=
EXTT18=
EXTT19=
PLAYORDER=
